# xmcd CD database file
#
# Track frame offsets:
#	150
#	29315
#	61305
#	86207
#	117584
#	139411
#	163438
#	194665
#	227742
#	264844
#
# Disc length: 3772 seconds
#
# Revision: 1
# Processed by: cddbd v1.5.2PL0 Copyright (c) Steve Scherf et al.
# Submitted via: CDex 1.70beta2
#
DISCID=960eba0a
DTITLE=Nuova Era and Meditazione - N. E.M.22
DYEAR=1900
DGENRE=New Age
TTITLE0=Nicholas Gunn - Moonlight on Havasu Creek
TTITLE1=Anhinga - Canyon Shadows
TTITLE2=mAGEc - Bella Donna
TTITLE3=Bekki Williams - Secrets of the Labyrinth
TTITLE4=Christopher Franke - Silence of the Eclipse
TTITLE5=Philip Riley - All the Lands my Mother Sang
TTITLE6=Tino Izzo - One Hundred Years of Solitude
TTITLE7=Arno - Aquaphonia (Part II)
TTITLE8=Chris Spheeris and Paul Voldouris - Maya
TTITLE9=Laurel Emryss - Soundpeace
EXTD=
EXTT0=
EXTT1=
EXTT2=
EXTT3=
EXTT4=
EXTT5=
EXTT6=
EXTT7=
EXTT8=
EXTT9=
PLAYORDER=
